<?xml version="1.0" encoding="utf-8"?>
<svg viewBox="0 0 1624 447" xmlns="http://www.w3.org/2000/svg" fill-rule="evenodd" clip-rule="evenodd" stroke-linejoin="round" stroke-miterlimit="1.414">
  <path d="M454.1 192.58l-5.535-5.535L471.9 163.71l23.335 23.335-5.535 5.535v24.638h-35.6V192.58z" fill="#ff0101"/>
  <path d="M320.996 182.754c10.039 0 18.178 7.716 18.178 17.233 0 9.518-8.139 17.233-18.178 17.233-10.039 0-18.177-7.715-18.177-17.233 0-9.517 8.138-17.233 18.177-17.233z" fill="#fff"/>
  <g fill="#fff">
    <path d="M42.522 272.654l4.882-1.018c4.748-1.085 9.223-2.475 13.428-4.17 4.205-1.696 7.833-4.205 10.885-7.528 3.05-3.323 5.459-7.697 7.222-13.123 1.763-5.425 2.645-12.342 2.645-20.752 0-12.614-2.848-21.803-8.545-27.567-5.696-5.765-13.156-8.647-22.38-8.647-2.305 0-4.645.068-7.018.204a75.227 75.227 0 0 0-7.426.813v168.661H0V172.963c3.798-.27 7.935-.543 12.41-.814 4.477-.27 9.122-.509 13.937-.712 4.815-.204 9.63-.339 14.445-.407 4.815-.068 9.46-.102 13.937-.102 10.986 0 20.514 1.255 28.584 3.764 8.07 2.51 14.75 6.07 20.04 10.681 5.29 4.612 9.223 10.207 11.8 16.785 2.577 6.578 3.866 14.004 3.866 22.278 0 8.68-1.424 16.818-4.273 24.414-2.848 7.595-7.222 14.241-13.122 19.938-5.9 5.697-13.428 10.173-22.583 13.428-9.155 3.255-20.04 4.883-32.654 4.883H44.76l-2.238-14.445zM183.513 248.85c2.44-1.628 5.39-3.425 8.85-5.392 3.459-1.966 7.222-3.83 11.29-5.594a99.092 99.092 0 0 1 12.615-4.476c4.34-1.22 8.613-1.83 12.818-1.83 4.747 0 9.189.778 13.326 2.338 4.137 1.56 7.765 3.866 10.884 6.918 3.12 3.051 5.595 6.883 7.426 11.495 1.83 4.611 2.747 10.036 2.747 16.276v90.942h-35.604v-84.025c0-7.46-1.187-12.953-3.56-16.48-2.374-3.526-6.41-5.289-12.106-5.289-2.034 0-4.306.271-6.815.813a45.813 45.813 0 0 0-7.528 2.34 81.314 81.314 0 0 0-7.426 3.46 53.783 53.783 0 0 0-6.714 4.17v95.011h-35.604V154.042l35.604-7.12v85.347c0 2.78-.068 5.391-.203 7.833-.136 2.848-.271 5.764-.407 8.748h.407z" fill-rule="nonzero"/>
    <path d="M302.735 234.201h35.604v125.326h-35.604z"/>
    <path d="M414.022 359.527h-35.604V154.042l35.604-7.324v212.81z" fill-rule="nonzero"/>
    <path d="M454.102 234.201h35.604v125.326h-35.604z"/>
    <path d="M564.982 244.984c5.019-3.662 10.207-6.815 15.564-9.46 5.358-2.645 11.699-3.967 19.023-3.967 6.51 0 12.784 1.12 18.819 3.357 6.036 2.237 11.393 5.798 16.073 10.681 4.679 4.882 8.409 11.223 11.19 19.022 2.78 7.8 4.17 17.327 4.17 28.585 0 10.851-1.526 20.515-4.577 28.992-3.052 8.477-7.392 15.665-13.021 21.566-5.63 5.9-12.478 10.41-20.55 13.53-8.07 3.12-17.19 4.678-27.363 4.678-3.391 0-6.85-.237-10.376-.712-3.526-.474-6.51-1.05-8.952-1.729 0 1.221.068 3.323.204 6.307.136 2.984.203 6.036.203 9.155v64.494l-35.603 5.9V237.864l31.534-5.494 3.662 12.614zm47.608 49.642c0-13.97-2.272-24.278-6.816-30.924-4.543-6.646-10.681-9.969-18.412-9.969-3.933 0-7.697.407-11.291 1.22a63.22 63.22 0 0 0-10.682 3.46v82.397a57.312 57.312 0 0 0 8.037 1.424c2.645.271 5.459.407 8.443.407 4.476 0 8.68-.407 12.614-1.22 3.933-.815 6.849-2.17 8.748-4.07 2.17-2.17 4.273-6.95 6.307-14.343 2.035-7.392 3.052-16.853 3.052-28.382zM765.788 318.227c0 7.052-1.458 12.851-4.374 17.395-2.916 4.543-6.341 8.511-10.274 11.901a136.642 136.642 0 0 1-6.511 5.29c-2.305 1.763-4.883 3.323-7.731 4.68-2.848 1.356-6.103 2.441-9.765 3.255-3.663.813-7.935 1.22-12.818 1.22-8.816 0-16.852-.915-24.11-2.746-7.255-1.83-14.071-4.78-20.445-8.85l8.748-23.397a215.976 215.976 0 0 1 8.647 5.493 84.97 84.97 0 0 0 9.765 5.595 72.538 72.538 0 0 0 10.885 4.272 39.707 39.707 0 0 0 11.596 1.73c2.713 0 5.188-.204 7.426-.61 2.238-.408 4.103-1.154 5.595-2.239 1.22-.949 2.137-2.678 2.747-5.188.61-2.509.915-5.527.915-9.053 0-4.069-1.525-7.29-4.577-9.664-3.052-2.374-6.884-4.442-11.495-6.205a362.42 362.42 0 0 0-14.852-5.29 67.77 67.77 0 0 1-14.852-7.019 38.47 38.47 0 0 1-11.495-11.19c-3.052-4.544-4.578-10.545-4.578-18.005 0-4.883 1.492-9.732 4.476-14.547 2.984-4.815 6.239-8.782 9.766-11.902 4.34-3.933 9.155-6.849 14.445-8.748 5.29-1.899 11.393-2.848 18.31-2.848 5.833 0 12.004.34 18.514 1.017a484.822 484.822 0 0 1 18.31 2.238l-3.865 24.821a223.078 223.078 0 0 0-9.257-2.849 305.748 305.748 0 0 0-9.867-2.644 106.69 106.69 0 0 0-9.46-1.933c-3.052-.475-5.8-.712-8.24-.712-3.12 0-5.493.17-7.121.508-1.627.34-2.916.78-3.865 1.323-.814.542-1.458 1.695-1.933 3.458a21.036 21.036 0 0 0-.712 5.494c0 3.797 1.526 6.781 4.577 8.951 3.052 2.171 6.884 4.103 11.495 5.8a694.943 694.943 0 0 0 14.954 5.288c5.357 1.832 10.342 4.171 14.954 7.02 4.61 2.848 8.443 6.544 11.495 11.088 3.05 4.543 4.577 10.477 4.577 17.802zM897.826 282.216h-12.2v77.311h-36.22V172.352c7.32-.542 15.6-1.017 24.82-1.424 9.22-.407 18.04-.61 26.45-.61 21.57 0 37.94 4.137 49.13 12.41 11.19 8.274 16.79 21.227 16.79 38.86 0 7.866-.95 14.716-2.85 20.548-1.9 5.832-4.41 10.92-7.53 15.26s-6.71 8.001-10.78 10.985a72 72 0 0 1-12.82 7.528c5.29 9.63 10.34 18.717 15.16 27.262 4.81 8.545 9.63 16.005 14.44 22.38 4.82 6.375 9.7 11.427 14.65 15.157 4.95 3.73 10.28 5.595 15.97 5.595h1.22v12.003c-2.84.95-6.13 1.73-9.86 2.34-3.73.61-7.9.915-12.52.915-6.64 0-12.44-.61-17.39-1.83-4.95-1.22-9.77-3.866-14.45-7.935-4.67-4.069-9.52-10.037-14.54-17.904-5.02-7.867-10.85-18.514-17.5-31.942l-9.97-19.734zm-5.69-18.514c5.01 0 9.86-.644 14.54-1.933 4.68-1.289 8.38-2.882 11.09-4.78 1.36-.95 2.71-2.17 4.07-3.663 1.36-1.492 2.58-3.459 3.66-5.9 1.09-2.442 1.97-5.56 2.65-9.359.67-3.798 1.01-8.545 1.01-14.242 0-6.374-.71-11.732-2.13-16.072-1.43-4.34-3.56-7.833-6.41-10.478-2.85-2.645-6.38-4.544-10.58-5.696-4.21-1.153-9.02-1.73-14.45-1.73-1.49 0-3.15.034-4.98.102-1.83.068-3.49.237-4.98.51v73.241h6.51zM1065.676 361.968c-20.35 0-35.91-5.527-46.69-16.58-10.79-11.055-16.18-27.229-16.18-48.524 0-10.037 1.32-19.09 3.97-27.16 2.64-8.07 6.61-14.92 11.9-20.549s11.87-9.969 19.74-13.02c7.86-3.053 16.95-4.578 27.26-4.578 20.75 0 36.42 5.628 47 16.886 10.57 11.258 15.86 27.262 15.86 48.014 0 10.173-1.32 19.294-3.96 27.364-2.65 8.071-6.61 14.92-11.9 20.55-5.29 5.628-11.87 9.968-19.74 13.02-7.87 3.051-16.95 4.577-27.26 4.577zm-25.84-65.307c0 16.411 1.97 28.483 5.9 36.214 3.93 7.731 10.51 11.597 19.73 11.597 3.53 0 6.85-.306 9.97-.916 3.12-.61 5.7-1.526 7.74-2.746 1.35-.679 2.54-2.34 3.55-4.985 1.02-2.645 1.9-5.934 2.65-9.867.75-3.934 1.29-8.41 1.63-13.428.34-5.019.51-10.24.51-15.666 0-16.005-2-27.974-6.01-35.909-4-7.934-10.47-11.902-19.42-11.902-3.4 0-6.72.34-9.97 1.018-3.26.678-6.11 1.763-8.55 3.255-1.35.814-2.54 2.51-3.56 5.086-1.02 2.577-1.83 5.832-2.44 9.766-.61 3.933-1.05 8.341-1.32 13.224-.27 4.883-.41 9.97-.41 15.26zM1206.056 313.751c3.12 0 5.76-.272 7.93-.814 2.17-.543 4.14-1.357 5.9-2.442 1.77-1.085 3.23-4.272 4.38-9.562 1.15-5.29 1.73-12.003 1.73-20.14 0-4.613-.41-8.885-1.22-12.819-.82-3.933-2.11-7.358-3.87-10.274-1.76-2.916-3.9-5.188-6.41-6.816-2.51-1.627-5.53-2.44-9.05-2.44-2.85 0-5.29.236-7.32.711-2.04.475-4.01 1.322-5.91 2.543-1.89 1.221-3.39 4.408-4.47 9.562-1.09 5.154-1.63 11.936-1.63 20.345 0 4.341.44 8.444 1.32 12.31.89 3.865 2.14 7.29 3.77 10.273 1.63 2.984 3.69 5.324 6.2 7.02 2.51 1.695 5.39 2.543 8.65 2.543zm-12.21 133.056c-8.27 0-15.29-.746-21.06-2.238-5.76-1.492-10.44-3.492-14.03-6.002-3.6-2.509-6.17-5.39-7.73-8.646-1.56-3.255-2.34-6.714-2.34-10.376 0-6.51 2.17-11.97 6.51-16.378 4.34-4.408 10.03-8.51 17.09-12.309l8.34 2.238c-.68 2.713-1.19 5.12-1.53 7.223-.34 2.102-.51 4.51-.51 7.222 0 5.697 1.94 10.241 5.8 13.631 3.87 3.391 9.6 5.087 17.19 5.087 3.53 0 7.02-.204 10.48-.61 3.46-.408 6.82-.95 10.07-1.628 3.26-.678 6.28-1.458 9.06-2.34 2.78-.882 5.11-1.865 7.01-2.95 2.72-1.628 4.45-4.069 5.19-7.324.75-3.255 1.12-7.189 1.12-11.8 0-9.223-9.36-13.835-28.07-13.835l-19.94-.203c-14.11-.136-24.38-2.204-30.83-6.206-6.44-4-9.66-10.816-9.66-20.446 0-3.12.68-6.24 2.03-9.359a46.099 46.099 0 0 1 5.19-8.952 65.123 65.123 0 0 1 6.92-7.935c2.51-2.44 4.85-4.679 7.02-6.713-3.53-1.628-6.92-3.832-10.17-6.613-3.26-2.78-6.11-6-8.55-9.663-2.44-3.663-4.37-7.799-5.8-12.41-1.42-4.612-2.13-9.63-2.13-15.056 0-8.003 1.39-15.123 4.17-21.363 2.78-6.239 6.61-11.528 11.49-15.869 4.89-4.34 10.65-7.663 17.3-9.969 6.64-2.306 13.83-3.458 21.56-3.458 6.51 0 12.28.34 17.3 1.017 5.01.678 9.9 1.763 14.64 3.255 6.38-.27 13.19-.78 20.45-1.526s13.6-1.66 19.02-2.746l-2.84 16.276c-2.58.95-5.97 1.695-10.18 2.238-4.2.542-7.93.813-11.19.813 1.49 2.713 3.16 6.545 4.99 11.495 1.83 4.951 2.74 11.292 2.74 19.023 0 7.867-1.35 14.852-4.07 20.955-2.71 6.104-6.47 11.224-11.29 15.361-4.81 4.137-10.54 7.29-17.19 9.46-6.65 2.17-13.9 3.256-21.77 3.256-1.22 0-2.64-.034-4.27-.102l-4.88-.204a45.434 45.434 0 0 1-4.58-.407c-1.43-.203-2.61-.44-3.56-.712-.82 1.492-1.7 3.493-2.65 6.002-.95 2.51-1.42 4.985-1.42 7.426 0 2.984 1.39 4.985 4.17 6.002 2.78 1.017 7.83 1.526 15.16 1.526h28.07c8.55 0 15.74.678 21.57 2.034 5.83 1.357 10.54 3.493 14.14 6.41 3.59 2.915 6.14 6.577 7.63 10.985 1.49 4.408 2.24 9.664 2.24 15.768 0 7.324-2.07 14.682-6.21 22.074-4.13 7.392-9.93 14.004-17.39 19.837-7.46 5.832-16.28 10.58-26.45 14.241-10.18 3.662-21.3 5.493-33.37 5.493zM1355.596 231.557c5.96 0 11.76.847 17.39 2.543 5.63 1.695 10.82 4.543 15.56 8.545 4.75 4.001 8.85 9.358 12.31 16.072 3.46 6.714 6.07 15.09 7.84 25.126v1.628c-1.09 1.492-2.55 2.848-4.38 4.07-1.83 1.22-4.24 2.271-7.22 3.152-2.98.882-6.65 1.696-10.99 2.442-4.34.746-9.56 1.322-15.66 1.73l-39.47 3.051v5.29c0 9.765 2.57 17.835 7.73 24.21 5.15 6.375 12.88 9.562 23.19 9.562 4.21 0 8.61-.44 13.23-1.322 4.61-.882 8.98-1.933 13.12-3.153 4.14-1.22 7.93-2.476 11.39-3.764 3.46-1.289 6.07-2.408 7.83-3.357l3.06 9.155c-3.8 2.848-8.07 5.798-12.82 8.85-4.75 3.052-9.83 5.798-15.26 8.24-5.43 2.441-11.16 4.442-17.19 6.002-6.04 1.56-12.24 2.34-18.62 2.34-7.46 0-14.41-1.12-20.85-3.358-6.44-2.238-12-5.798-16.68-10.68-4.68-4.884-8.38-11.258-11.09-19.125-2.71-7.867-4.07-17.429-4.07-28.687 0-12.614 1.56-23.295 4.68-32.043 3.12-8.748 7.46-15.8 13.02-21.159 5.56-5.357 12.1-9.257 19.63-11.698 7.53-2.442 15.64-3.662 24.32-3.662zm-16.89 21.158c-.95.814-1.87 2.34-2.75 4.578-.88 2.238-1.66 4.883-2.34 7.935-.68 3.051-1.22 6.24-1.63 9.562-.4 3.323-.6 6.544-.6 9.664l39.26-1.83c-.41-3.663-1.02-7.46-1.83-11.395-.81-3.933-2-7.527-3.56-10.782-1.56-3.256-3.49-5.968-5.8-8.138-2.3-2.17-5.08-3.256-8.34-3.256-2.31 0-4.48.272-6.51.814-2.04.543-4 1.492-5.9 2.848zM1512.456 262.481c-2.72-.949-5.63-1.729-8.75-2.34-3.12-.61-6.11-.915-8.96-.915-2.03 0-3.86.17-5.49.508-1.62.34-3.15.916-4.57 1.73-1.43.814-2.85 1.9-4.28 3.255a113.195 113.195 0 0 0-4.78 4.883v89.925h-35.6V234.201h31.94l3.05 19.94h.2c.95-1.493 2.11-3.223 3.46-5.189 1.36-1.967 2.82-3.934 4.38-5.9a53.264 53.264 0 0 1 4.88-5.392c1.7-1.628 3.43-2.78 5.19-3.459 3.12-1.085 6.64-1.797 10.58-2.136 3.93-.339 8.2-.508 12.81-.508l-4.06 30.924zM1623.736 318.227c0 7.052-1.46 12.851-4.37 17.395-2.92 4.543-6.34 8.511-10.27 11.901a137.488 137.488 0 0 1-6.52 5.29c-2.3 1.763-4.88 3.323-7.73 4.68-2.85 1.356-6.1 2.441-9.76 3.255-3.66.813-7.94 1.22-12.82 1.22-8.82 0-16.85-.915-24.11-2.746-7.25-1.83-14.07-4.78-20.45-8.85l8.75-23.397c2.72 1.627 5.6 3.46 8.65 5.493a84.79 84.79 0 0 0 9.77 5.595 72.02 72.02 0 0 0 10.88 4.272c3.8 1.153 7.66 1.73 11.6 1.73 2.71 0 5.18-.204 7.42-.61 2.24-.408 4.11-1.154 5.6-2.239 1.22-.949 2.13-2.678 2.74-5.188.61-2.509.92-5.527.92-9.053 0-4.069-1.53-7.29-4.58-9.664-3.05-2.374-6.88-4.442-11.49-6.205a366.605 366.605 0 0 0-14.85-5.29c-5.29-1.763-10.25-4.103-14.86-7.019a38.452 38.452 0 0 1-11.49-11.19c-3.05-4.544-4.58-10.545-4.58-18.005 0-4.883 1.49-9.732 4.48-14.547 2.98-4.815 6.24-8.782 9.76-11.902 4.34-3.933 9.16-6.849 14.45-8.748 5.29-1.899 11.39-2.848 18.31-2.848 5.83 0 12 .34 18.51 1.017 6.51.678 12.62 1.424 18.31 2.238l-3.86 24.821c-2.85-.95-5.94-1.899-9.26-2.849-3.32-.949-6.61-1.83-9.87-2.644a106.4 106.4 0 0 0-9.46-1.933c-3.05-.475-5.8-.712-8.24-.712-3.12 0-5.49.17-7.12.508-1.63.34-2.92.78-3.86 1.323-.82.542-1.46 1.695-1.94 3.458a21.249 21.249 0 0 0-.71 5.494c0 3.797 1.53 6.781 4.58 8.951 3.05 2.171 6.88 4.103 11.49 5.8a707.75 707.75 0 0 0 14.96 5.288c5.35 1.832 10.34 4.171 14.95 7.02 4.61 2.848 8.44 6.544 11.5 11.088 3.05 4.543 4.57 10.477 4.57 17.802z" fill-rule="nonzero"/>
  </g>
  <path d="M586.749.88l82.474 47.327h-35.607l-47.885-27.479L360.527 149.96l-8.812-15.377L584.712.88l.504-.88.515.295.514-.295.504.88zm232.997 133.702l-.012.021v-.028l.012.007z" fill="#fff"/>
</svg>