<svg xmlns="http://www.w3.org/2000/svg" viewBox="0 0 455.24 157.67" width="160px"><defs><style>.cls-1{fill:#fff;}</style></defs><g id="Layer_2" data-name="Layer 2"><g id="Layer_1-2" data-name="Layer 1"><path class="cls-1" d="M14.12,84.94C19.72,70.62,33,60.66,33,60.66c-4.75-2.87-11.42-1.07-11.42-1.07C33.51,43.2,49.64,38.83,54.87,37.19L43.29,8.34A78.94,78.94,0,0,0,49.7,152.1C11.44,127.92,14.12,84.94,14.12,84.94Zm60.23,24.28C63.05,99.12,62,92.35,62,92.35a26.81,26.81,0,0,0-3.7,5.74C48,80.45,65.84,61.26,65.84,61.26c-17.94,9.14-22,30.66-21.31,39.41,1,12.54,7.52,17.06,7.52,17.06a47.41,47.41,0,0,1,2.79-11.32c5,10.33,16.27,15.53,19.48,34.87,1.53,9.12,0,14.65-.55,16.24,1.68.1,3.37.15,5.06.15a79.06,79.06,0,0,0,17.94-2C99.05,130.3,83.14,117.06,74.35,109.22ZM94.66,14.07A11.78,11.78,0,0,0,106,4.68,78.27,78.27,0,0,0,83.24,0a24.82,24.82,0,0,0-.14,2.59A11.47,11.47,0,0,0,94.66,14.07Zm10.59,39.77a6.58,6.58,0,0,0,6.21-4.64s-2.72-1.39-6-2.76a42.42,42.42,0,0,0-6.32-2C97.19,50.16,101.62,53.84,105.25,53.84ZM62.56,14.17a11.6,11.6,0,0,0,11.6-11.6c0-.66,0-1.73-.14-2.54A79,79,0,0,0,51.13,4.89,11.76,11.76,0,0,0,62.56,14.17Zm51.26-6.11-11.6,29c6.6,1.56,19,7,17.14,10.47-.89,1.64-2.79,3.19-1.72,3.67,11.93,5.6,26,12.26,26,12.26a1.29,1.29,0,0,1,.48,1.54c-1.69,3.54-6.14,5.08-6.14,5.08s-.46,6.32-7.61,11.16a11.59,11.59,0,0,0-11.12-8.83,11.64,11.64,0,1,0,.18,23.27c3.3,0,6.14-2,8.26-4.24A19.71,19.71,0,0,1,121,109.57c-4.39-7.34-11.51-9.42-17.37-7.65C63.56,83,82,52.71,82.86,51.28a10,10,0,0,1-2.47.29A10.81,10.81,0,0,1,69.58,40.75a10.49,10.49,0,0,1,.77-4A11.27,11.27,0,0,0,66,45.65c0,9,7.58,10.67,7.58,10.67a38.35,38.35,0,0,0-3.15,28.2c4.81,17.35,23.12,20.36,34.37,32.84C119,133.14,117.64,145,117.07,147.8A79,79,0,0,0,113.82,8.06ZM145.74,91c-3.31,2.6-8.21,3.69-15.13-1.38-6.47-4.8-11.45-5.46-11.45-5.46a22,22,0,0,1,10.2.42c3.38,1.09,5.39,2.26,10.54,2.2a25.93,25.93,0,0,0,9-2.25S149.54,88,145.74,91ZM450.92,52.75c0-1.82-1.1-2.57-3.26-2.57h-3.39v8.94h1.47V55.3h1.38l2.31,3.82h1.67l-2.51-3.93A2.28,2.28,0,0,0,450.92,52.75Zm-5.18,1.3V51.43h1.77c.89,0,1.94.13,1.94,1.21,0,1.3-1,1.41-2.07,1.41ZM423,71.89c-9.41-3.11-20.13-4.54-20.13-10.26,0-4.52,6-6.14,10.88-6.14a43.16,43.16,0,0,1,18.32,4.64V49A76.31,76.31,0,0,0,410.4,45.9c-19.76,0-31,7.11-31,19.63,0,10.09,7.65,15.6,16.45,18.51C406.75,87.63,417,88.76,417,95.18c0,5.35-7.62,6.78-13.24,6.78-9,0-16-1.15-23.77-5V108.1a98.06,98.06,0,0,0,25.9,3.65c28.56,0,34.23-12.82,34.23-20.72C440.09,80.79,434.7,75.74,423,71.89Zm24.3-25.47a7.84,7.84,0,0,0-7.95,8.08,7.93,7.93,0,1,0,15.85,0A7.83,7.83,0,0,0,447.34,46.42Zm0,14.75c-3.85,0-6.22-3-6.22-6.67,0-3.93,2.72-6.68,6.22-6.68s6.18,2.75,6.18,6.68S450.79,61.17,447.34,61.17ZM301.66,79.41c0,19.84,18.46,32.34,47.88,32.34a69.73,69.73,0,0,0,22.16-3.69V97.16a53.88,53.88,0,0,1-19.39,3.56c-10.81,0-26.76-5.38-26.76-22.29,0-13.29,9.69-22.48,25.28-22.48a44.36,44.36,0,0,1,20.87,5V49.79c-5.26-2.31-13.75-3.89-22.79-3.89C320.55,45.9,301.66,58.7,301.66,79.41ZM236.6,81c9.48-3.08,16.48-9.41,16.48-17,0-6.44-2.47-11.45-9.85-14.5-5.63-2.31-14-2.21-20.11-2.21h-35.3v63.05h22.89V56.61h5.21c8.57,0,13.53,3.14,13.53,9.88,0,10.22-15.39,15.64-15.39,15.64,6,8.79,12,16.8,15.58,20.58,6.58,7,11.44,8.92,20.64,8.92a107.56,107.56,0,0,0,16.77-1.28C257.91,104.8,241.43,86.74,236.6,81Zm35.14,29.36h22.89v-63H271.74Z"/></g></g></svg>
