<?xml version="1.0" encoding="utf-8"?>
<!-- Generator: Adobe Illustrator 27.5.0, SVG Export Plug-In . SVG Version: 6.00 Build 0)  -->
<svg version="1.1" id="Layer_1" xmlns="http://www.w3.org/2000/svg" xmlns:xlink="http://www.w3.org/1999/xlink" x="0px" y="0px"
	 viewBox="0 0 765.4 402.28" style="enable-background:new 0 0 765.4 402.28;" xml:space="preserve">
<style type="text/css">
	.st0{fill:#FFFFFF;}
	.st1{clip-path:url(#SVGID_00000057119431026008937390000010872062133781067696_);}
</style>
<g>
	<g>
		<path class="st0" d="M334.74,100.19v11.22h-3.14V84.43h7.4c3.31,0,5.75,0.63,7.33,1.9c1.58,1.27,2.37,3.17,2.37,5.72
			c0,3.57-1.81,5.98-5.42,7.23l7.32,12.12h-3.71l-6.53-11.22H334.74z M334.74,97.5h4.3c2.21,0,3.84-0.44,4.87-1.32
			c1.03-0.88,1.55-2.2,1.55-3.96c0-1.78-0.53-3.07-1.58-3.86c-1.05-0.79-2.74-1.18-5.06-1.18h-4.08V97.5z"/>
		<path class="st0" d="M362.71,111.78c-2.99,0-5.35-0.91-7.08-2.73c-1.73-1.82-2.59-4.35-2.59-7.58c0-3.26,0.8-5.85,2.41-7.77
			c1.61-1.92,3.76-2.88,6.47-2.88c2.53,0,4.54,0.83,6.01,2.5c1.48,1.67,2.21,3.87,2.21,6.6v1.94h-13.93
			c0.06,2.37,0.66,4.17,1.8,5.41c1.14,1.23,2.74,1.84,4.81,1.84c2.18,0,4.33-0.46,6.46-1.37v2.73c-1.08,0.47-2.11,0.8-3.07,1
			C365.24,111.68,364.07,111.78,362.71,111.78z M361.88,93.38c-1.62,0-2.92,0.53-3.88,1.59c-0.96,1.06-1.53,2.52-1.71,4.39h10.57
			c0-1.93-0.43-3.41-1.29-4.44C364.7,93.89,363.47,93.38,361.88,93.38z"/>
		<path class="st0" d="M391.87,91.19v1.94l-3.75,0.44c0.35,0.43,0.65,0.99,0.92,1.69c0.27,0.69,0.41,1.48,0.41,2.35
			c0,1.98-0.67,3.56-2.03,4.74c-1.35,1.18-3.21,1.77-5.57,1.77c-0.6,0-1.17-0.05-1.7-0.15c-1.3,0.69-1.96,1.56-1.96,2.6
			c0,0.55,0.23,0.96,0.68,1.23c0.46,0.26,1.24,0.4,2.34,0.4h3.58c2.19,0,3.87,0.46,5.05,1.38c1.17,0.92,1.76,2.26,1.76,4.02
			c0,2.24-0.9,3.95-2.69,5.12c-1.79,1.17-4.41,1.76-7.86,1.76c-2.64,0-4.68-0.49-6.11-1.48c-1.43-0.98-2.15-2.37-2.15-4.17
			c0-1.23,0.4-2.29,1.18-3.19c0.79-0.9,1.9-1.51,3.32-1.83c-0.52-0.23-0.95-0.6-1.3-1.09c-0.35-0.49-0.53-1.06-0.53-1.72
			c0-0.74,0.2-1.38,0.59-1.94c0.4-0.55,1.01-1.09,1.86-1.61c-1.04-0.43-1.9-1.16-2.55-2.2c-0.66-1.03-0.99-2.21-0.99-3.54
			c0-2.21,0.66-3.92,1.99-5.12c1.33-1.2,3.21-1.8,5.65-1.8c1.06,0,2.01,0.12,2.86,0.37H391.87z M375.75,114.8
			c0,1.09,0.46,1.92,1.38,2.49s2.25,0.85,3.97,0.85c2.57,0,4.48-0.38,5.71-1.15c1.24-0.77,1.85-1.81,1.85-3.13
			c0-1.09-0.34-1.85-1.01-2.28c-0.67-0.42-1.95-0.64-3.82-0.64h-3.67c-1.39,0-2.47,0.33-3.25,1
			C376.13,112.61,375.75,113.56,375.75,114.8z M377.41,97.66c0,1.42,0.4,2.49,1.2,3.21c0.8,0.72,1.91,1.09,3.34,1.09
			c2.99,0,4.48-1.45,4.48-4.35c0-3.04-1.51-4.56-4.54-4.56c-1.44,0-2.55,0.39-3.32,1.16C377.79,94.99,377.41,96.14,377.41,97.66z"/>
		<path class="st0" d="M399.01,91.19v13.12c0,1.65,0.38,2.88,1.13,3.69c0.75,0.81,1.93,1.22,3.52,1.22c2.12,0,3.66-0.58,4.64-1.73
			c0.98-1.16,1.47-3.04,1.47-5.66V91.19h3.06v20.22h-2.53l-0.44-2.71h-0.17c-0.63,1-1.5,1.76-2.61,2.29
			c-1.11,0.53-2.38,0.79-3.81,0.79c-2.46,0-4.3-0.59-5.52-1.75c-1.23-1.17-1.84-3.04-1.84-5.61V91.19H399.01z"/>
		<path class="st0" d="M422.09,111.41h-3.06V82.7h3.06V111.41z"/>
		<path class="st0" d="M440.72,111.41l-0.61-2.88h-0.15c-1.01,1.27-2.01,2.12-3.02,2.57c-1,0.45-2.25,0.67-3.76,0.67
			c-2,0-3.58-0.52-4.71-1.55c-1.14-1.03-1.71-2.5-1.71-4.41c0-4.08,3.27-6.22,9.8-6.42l3.43-0.11v-1.25c0-1.59-0.34-2.76-1.02-3.51
			c-0.68-0.76-1.77-1.14-3.28-1.14c-1.68,0-3.59,0.52-5.72,1.55l-0.94-2.34c1-0.54,2.09-0.96,3.28-1.27
			c1.19-0.31,2.38-0.46,3.57-0.46c2.41,0,4.2,0.54,5.36,1.61c1.16,1.07,1.74,2.79,1.74,5.15v13.8H440.72z M433.8,109.25
			c1.91,0,3.41-0.52,4.49-1.57c1.09-1.05,1.63-2.51,1.63-4.39v-1.83l-3.06,0.13c-2.44,0.09-4.19,0.46-5.27,1.13
			c-1.08,0.67-1.62,1.71-1.62,3.13c0,1.11,0.33,1.95,1.01,2.53C431.65,108.96,432.59,109.25,433.8,109.25z"/>
		<path class="st0" d="M455.83,109.25c0.54,0,1.06-0.04,1.57-0.12c0.51-0.08,0.9-0.16,1.2-0.25v2.34c-0.33,0.16-0.82,0.29-1.47,0.4
			c-0.65,0.11-1.23,0.16-1.74,0.16c-3.91,0-5.87-2.06-5.87-6.18V93.57h-2.9v-1.48l2.9-1.27l1.29-4.32h1.77v4.69h5.87v2.38h-5.87
			v11.9c0,1.22,0.29,2.15,0.87,2.8C454.03,108.92,454.82,109.25,455.83,109.25z"/>
		<path class="st0" d="M470.84,111.78c-2.99,0-5.35-0.91-7.08-2.73c-1.73-1.82-2.59-4.35-2.59-7.58c0-3.26,0.8-5.85,2.41-7.77
			c1.61-1.92,3.76-2.88,6.47-2.88c2.53,0,4.54,0.83,6.01,2.5c1.48,1.67,2.21,3.87,2.21,6.6v1.94h-13.93
			c0.06,2.37,0.66,4.17,1.8,5.41c1.14,1.23,2.74,1.84,4.81,1.84c2.18,0,4.33-0.46,6.46-1.37v2.73c-1.08,0.47-2.11,0.8-3.07,1
			C473.37,111.68,472.2,111.78,470.84,111.78z M470.01,93.38c-1.62,0-2.92,0.53-3.88,1.59c-0.96,1.06-1.53,2.52-1.71,4.39h10.57
			c0-1.93-0.43-3.41-1.29-4.44C472.83,93.89,471.6,93.38,470.01,93.38z"/>
		<path class="st0" d="M497.29,108.69h-0.17c-1.41,2.05-3.53,3.08-6.35,3.08c-2.64,0-4.7-0.9-6.17-2.71
			c-1.47-1.81-2.21-4.38-2.21-7.71c0-3.33,0.74-5.92,2.21-7.77c1.48-1.84,3.53-2.77,6.16-2.77c2.74,0,4.85,1,6.31,2.99h0.24
			l-0.13-1.46l-0.07-1.42V82.7h3.06v28.71h-2.49L497.29,108.69z M491.17,109.21c2.09,0,3.61-0.57,4.55-1.71
			c0.94-1.14,1.41-2.98,1.41-5.51v-0.65c0-2.86-0.48-4.91-1.43-6.13c-0.95-1.23-2.47-1.84-4.57-1.84c-1.79,0-3.17,0.7-4.12,2.1
			c-0.95,1.39-1.43,3.37-1.43,5.91c0,2.58,0.47,4.53,1.42,5.85C487.95,108.55,489.34,109.21,491.17,109.21z"/>
		<path class="st0" d="M525.91,90.85c2.66,0,4.72,0.91,6.19,2.72c1.47,1.82,2.2,4.38,2.2,7.7c0,3.32-0.74,5.9-2.22,7.74
			c-1.48,1.84-3.54,2.76-6.17,2.76c-1.32,0-2.52-0.24-3.61-0.73c-1.09-0.49-2-1.23-2.74-2.24h-0.22l-0.65,2.6h-2.2V82.7h3.06v6.97
			c0,1.56-0.05,2.97-0.15,4.21h0.15C520.99,91.86,523.1,90.85,525.91,90.85z M525.47,93.42c-2.09,0-3.6,0.6-4.52,1.8
			c-0.92,1.2-1.38,3.22-1.38,6.06c0,2.84,0.47,4.87,1.42,6.1c0.95,1.23,2.47,1.84,4.56,1.84c1.88,0,3.28-0.69,4.21-2.06
			c0.92-1.37,1.38-3.34,1.38-5.91c0-2.63-0.46-4.59-1.38-5.89S527.4,93.42,525.47,93.42z"/>
		<path class="st0" d="M536.26,91.19h3.28l4.43,11.53c0.97,2.63,1.57,4.53,1.81,5.7h0.15c0.16-0.63,0.5-1.7,1-3.22
			c0.51-1.52,2.18-6.19,5.01-14.01h3.28l-8.69,23.03c-0.86,2.27-1.87,3.89-3.02,4.84c-1.15,0.95-2.56,1.43-4.23,1.43
			c-0.94,0-1.86-0.11-2.77-0.31v-2.45c0.67,0.15,1.43,0.22,2.27,0.22c2.1,0,3.6-1.18,4.5-3.54l1.13-2.88L536.26,91.19z"/>
	</g>
	<g>
		<defs>
			<rect id="SVGID_1_" x="82.7" y="109.81" width="600" height="209.77"/>
		</defs>
		<clipPath id="SVGID_00000006683534735210311680000004793036444011364525_">
			<use xlink:href="#SVGID_1_"  style="overflow:visible;"/>
		</clipPath>
		<g style="clip-path:url(#SVGID_00000006683534735210311680000004793036444011364525_);">
			<path class="st0" d="M103.18,222.99c7.33-18.75,24.72-31.79,24.72-31.79c-6.22-3.76-14.95-1.4-14.95-1.4
				c15.62-21.46,36.74-27.18,43.59-29.33l-15.16-37.78c-50.93,25.78-71.33,87.97-45.55,138.9c11.37,22.47,30.55,40.01,53.94,49.34
				C99.67,279.27,103.18,222.99,103.18,222.99 M182.04,254.78c-14.8-13.22-16.17-22.09-16.17-22.09c-1.93,2.29-3.55,4.81-4.84,7.52
				c-13.49-23.1,9.87-48.22,9.87-48.22c-23.49,11.97-28.81,40.15-27.9,51.6c1.31,16.42,9.85,22.34,9.85,22.34
				c0.6-5.07,1.83-10.05,3.65-14.82c6.55,13.53,21.3,20.34,25.5,45.66c2.01,11.94,0,19.18-0.72,21.26c2.2,0.13,4.41,0.2,6.62,0.2
				c7.91,0.03,15.79-0.85,23.49-2.62C214.38,282.39,193.55,265.05,182.04,254.78 M208.64,130.19c7.21-0.12,13.38-5.23,14.85-12.29
				c-9.57-3.51-19.62-5.58-29.8-6.13c-0.12,1.13-0.18,2.26-0.18,3.39c-0.01,8.29,6.71,15.02,15.01,15.03
				C208.55,130.2,208.59,130.2,208.64,130.19 M222.5,182.27c3.74-0.04,7.03-2.5,8.13-6.08c0,0-3.56-1.82-7.86-3.61
				c-2.69-1.09-5.45-1.96-8.27-2.62C211.95,177.45,217.75,182.27,222.5,182.27 M166.61,130.33c8.39,0,15.19-6.8,15.19-15.19
				c0-0.86,0-2.26-0.18-3.33c-10.25,0.62-20.35,2.77-29.97,6.36C153.16,125.23,159.38,130.28,166.61,130.33 M233.73,122.33
				l-15.19,37.97c8.64,2.04,24.88,9.17,22.44,13.71c-1.17,2.15-3.65,4.18-2.25,4.8c15.62,7.33,34.04,16.05,34.04,16.05
				c0.66,0.44,0.92,1.28,0.63,2.02c-2.21,4.64-8.04,6.65-8.04,6.65s-0.6,8.27-9.96,14.61c-1.65-6.72-7.64-11.48-14.56-11.56
				c-8.42-0.17-15.38,6.51-15.55,14.93c-0.17,8.42,6.51,15.38,14.93,15.55c0.29,0.01,0.57,0.01,0.86-0.01
				c4.32,0,8.04-2.62,10.81-5.55c1.43,8.9-1.89,17.9-8.76,23.74c-5.75-9.61-15.07-12.34-22.74-10.02
				c-52.47-24.77-28.32-64.43-27.19-66.31c-1.06,0.26-2.15,0.39-3.24,0.38c-7.82,0-14.15-6.33-14.15-14.15v-0.01
				c-0.01-1.79,0.33-3.57,1.01-5.24c-3.6,2.8-5.7,7.1-5.7,11.65c0,11.78,9.93,13.97,9.93,13.97c-6.05,11.33-7.52,24.54-4.13,36.92
				c6.3,22.72,30.27,26.66,45,43c18.59,20.66,16.81,36.19,16.07,39.86c49.91-27.8,67.83-90.8,40.03-140.71
				C267.85,146.36,252.41,131.62,233.73,122.33 M275.52,230.93c-4.33,3.4-10.75,4.83-19.81-1.81c-8.47-6.28-14.99-7.15-14.99-7.15
				c4.43-0.87,9.01-0.68,13.36,0.55c4.42,1.43,7.06,2.96,13.8,2.88c4.07-0.27,8.06-1.27,11.78-2.95
				C279.66,222.45,280.5,227,275.52,230.93 M675.12,180.84c0-2.38-1.44-3.37-4.27-3.37h-4.44v11.71h1.92v-5h1.81l3.03,5h2.19
				l-3.28-5.15c1.65,0.04,3.02-1.26,3.06-2.91C675.13,181.03,675.13,180.94,675.12,180.84 M668.34,182.54v-3.43h2.32
				c1.17,0,2.54,0.17,2.54,1.58c0,1.7-1.31,1.85-2.71,1.85H668.34z M638.56,205.9c-12.32-4.07-26.36-5.95-26.36-13.44
				c0-5.92,7.86-8.04,14.25-8.04c8.35,0.23,16.54,2.3,23.99,6.08v-14.57c-9.21-2.71-18.77-4.08-28.37-4.06
				c-25.87,0-40.59,9.31-40.59,25.7c0,13.21,10.02,20.43,21.54,24.24c14.27,4.7,27.69,6.18,27.69,14.59c0,7.01-9.98,8.88-17.34,8.88
				c-11.78,0-20.95-1.51-31.12-6.55v14.59c11.04,3.1,22.45,4.71,33.91,4.78c37.4,0,44.82-16.79,44.82-27.13
				C660.94,217.56,653.88,210.94,638.56,205.9 M670.38,172.55c-5.67-0.08-10.33,4.45-10.42,10.12c0,0.15,0,0.31,0.01,0.46
				c-0.2,5.73,4.28,10.54,10.01,10.74c5.73,0.21,10.54-4.28,10.74-10.01c0.01-0.25,0.01-0.49,0-0.74
				c0.18-5.66-4.26-10.39-9.92-10.57c-0.12-0.01-0.25-0.01-0.37-0.01H670.38z M670.38,191.87c-5.04,0-8.15-3.93-8.15-8.73
				c0-5.15,3.56-8.75,8.15-8.75c4.58,0,8.09,3.6,8.09,8.75s-3.52,8.73-8.04,8.73H670.38z M479.68,215.75
				c0,25.98,24.17,42.35,62.69,42.35c9.87-0.03,19.67-1.66,29.02-4.83v-14.27c-8.1,3.1-16.71,4.68-25.39,4.66
				c-14.15,0-35.04-7.04-35.04-29.19c0-17.4,12.69-29.43,33.1-29.43c9.51-0.09,18.89,2.16,27.33,6.55v-14.61
				c-6.89-3.03-18.01-5.09-29.84-5.09C504.41,171.87,479.68,188.63,479.68,215.75 M394.49,217.83
				c12.41-4.03,21.58-12.32,21.58-22.26c0-8.43-3.24-14.99-12.9-18.99c-7.37-3.02-18.33-2.89-26.33-2.89h-46.22v82.56h29.97V185.9
				h6.82c11.22,0,17.72,4.11,17.72,12.94c0,13.38-20.15,20.48-20.15,20.48c7.86,11.51,15.71,22,20.4,26.95
				c8.61,9.17,14.98,11.68,27.02,11.68c7.35,0.02,14.69-0.55,21.96-1.68C422.4,248.99,400.82,225.35,394.49,217.83 M440.5,256.28
				h29.97v-82.49H440.5V256.28z"/>
		</g>
	</g>
	<g>
		<rect x="326.91" y="129.45" class="st0" width="335.6" height="8.1"/>
	</g>
</g>
</svg>
